<?xml version="1.0" encoding="UTF-8" standalone="no"?>
<!DOCTYPE svg PUBLIC "-//W3C//DTD SVG 1.1//EN" "http://www.w3.org/Graphics/SVG/1.1/DTD/svg11.dtd">
<svg width="100%" height="100%" viewBox="0 0 1015 1015" version="1.1" xmlns="http://www.w3.org/2000/svg" xmlns:xlink="http://www.w3.org/1999/xlink" xml:space="preserve" xmlns:serif="http://www.serif.com/" style="fill-rule:evenodd;clip-rule:evenodd;stroke-linejoin:round;stroke-miterlimit:2;">
    <path d="M507.54,0.847C227.62,0.847 0.68,227.765 0.68,507.695C0.68,787.621 227.62,1014.54 507.54,1014.54C787.48,1014.54 1014.4,787.621 1014.4,507.695C1014.4,227.765 787.481,0.847 507.54,0.847ZM507.54,989.199C241.601,989.199 26.045,773.625 26.045,507.695C26.045,241.768 241.601,26.183 507.54,26.183C773.477,26.183 989.051,241.767 989.051,507.695C989.051,773.625 773.477,989.199 507.54,989.199ZM810.516,513.072C807.67,676.181 676.033,807.822 512.923,810.666L512.923,805.28L513.417,805.27L513.417,513.547L805.146,513.547L805.155,513.072L512.922,513.072L512.922,813.789L502.156,813.789L502.156,810.765C339.029,807.922 207.322,676.203 204.486,513.072L201.448,513.072L201.448,502.305L502.156,502.305L502.156,502.162L209.411,502.162L209.409,502.265L209.409,502.264L204.026,502.264C206.861,340.82 335.67,210.163 496.404,204.427L496.404,204.279L501.96,204.279L502.013,204.278L502.013,204.279L502.156,204.279L502.156,201.597L512.922,201.597L512.922,204.634C676.046,207.474 807.767,339.183 810.614,502.305L813.63,502.305L813.63,513.072L810.516,513.072ZM804.981,519.238L519.089,519.238L519.089,805.107C674.318,799.184 799.037,674.465 804.981,519.238ZM496.404,209.813C340.609,215.476 215.354,340.638 209.57,496.398L496.404,496.398L496.404,209.813ZM737.697,248.689L734.439,244.81L806.971,148.777L825.51,171.011L822.027,175.701L825.243,179.559L789.183,228.117L850.36,200.832L870.243,224.691L866.918,229.541L869.993,233.231L835.179,283.991L895.093,254.514L913.614,276.756L908.42,279.365L913.364,285.294L805.795,339.306L784.059,312.991L787.321,308.072L784.325,304.443L818.605,252.768L756.153,279.498L734.169,253.36L737.697,248.689ZM211.152,334.499L210.502,335.274L112.849,253.348L174.988,179.332C187.143,164.81 203.908,153.061 220.178,164.061C222.61,165.091 225.041,166.584 227.455,168.606C232.692,173.03 234.94,174.505 241.354,186.167C242.478,189.271 243.407,194.236 242.62,199.617C253.367,195.287 264.17,196.87 272.6,202.427C276.096,204 279.309,206.199 282.107,208.915C297.842,224.208 295.531,241.893 280.56,259.731L215.06,337.778L211.152,334.499ZM250.801,227.243C244.842,225.232 238.102,227.074 234.654,231.18L195.469,277.891L215.929,295.088L254.183,249.501C259.339,243.346 258.596,233.766 251.049,227.446C250.967,227.377 250.884,227.309 250.801,227.243ZM208.352,197.524C202.73,195.433 196.364,196.269 193.097,200.151L155.786,244.615L174.956,260.702L211.182,217.514C215.844,211.997 215.823,203.78 208.914,197.974C208.73,197.82 208.542,197.67 208.352,197.524ZM433.627,48.868L433.892,48.868L433.892,43.95L472.171,43.95L506.818,134.651L506.653,135.083L506.983,135.083L506.818,134.651L541.464,43.95L579.743,43.95L579.743,171.237L579.472,171.237L579.472,176.155L554.004,176.155L554.004,87.278L520.47,176.155L492.629,176.155L459.363,87.986L459.363,171.237L459.096,171.237L459.096,176.155L433.627,176.155L433.627,48.868Z" style="fill-rule:nonzero;"/>
</svg>
