<?xml version="1.0" encoding="UTF-8" standalone="no"?>
<!DOCTYPE svg PUBLIC "-//W3C//DTD SVG 1.1//EN" "http://www.w3.org/Graphics/SVG/1.1/DTD/svg11.dtd">
<svg width="100%" height="100%" viewBox="0 0 900 500" version="1.1" xmlns="http://www.w3.org/2000/svg" xmlns:xlink="http://www.w3.org/1999/xlink" xml:space="preserve" xmlns:serif="http://www.serif.com/" style="fill-rule:evenodd;clip-rule:evenodd;stroke-linejoin:round;stroke-miterlimit:2;">
    <g transform="matrix(1,0,0,1,0,-50)">
        <g transform="matrix(1.19017,0,0,1.19017,-85.5779,-57.0499)">
            <path d="M142.08,414.565L141.97,368.295L119.275,406.413L111.233,406.413L88.65,369.287L88.65,414.565L71.904,414.565L71.904,337.45L86.666,337.45L115.53,385.373L143.954,337.45L158.604,337.45L158.824,414.566L142.08,414.566L142.08,414.565Z" style="fill:white;stroke:white;stroke-width:0.84px;"/>
        </g>
        <g transform="matrix(1.19017,0,0,1.19017,-85.5779,-57.0499)">
            <rect x="210.164" y="337.45" width="17.848" height="77.116" style="fill:white;stroke:white;stroke-width:0.84px;"/>
        </g>
        <g transform="matrix(1.19017,0,0,1.19017,-85.5779,-57.0499)">
            <path d="M313.5,399.913C328.813,399.913 338.838,390.769 338.838,376.007C338.838,361.245 328.814,352.1 313.5,352.1L297.196,352.1L297.196,399.913L313.5,399.913ZM279.35,337.45L314.383,337.45C339.611,337.45 356.907,352.653 356.907,376.008C356.907,399.363 339.611,414.566 314.383,414.566L279.35,414.566L279.35,337.45ZM517.422,337.45L492.192,414.566L473.024,414.566L456.057,362.346L438.541,414.566L419.481,414.566L394.143,337.45L412.651,337.45L430.057,391.652L448.235,337.45L464.76,337.45L482.4,392.09L500.357,337.448L517.432,337.448L517.422,337.45ZM620.1,400.243L620.1,414.565L560.4,414.565L560.4,337.45L618.677,337.45L618.677,351.772L578.137,351.772L578.137,368.517L613.941,368.517L613.941,382.397L578.137,382.397L578.137,400.244L620.1,400.244L620.1,400.243ZM661.304,406.963L667.364,393.523C673.864,398.259 683.557,401.563 692.812,401.563C703.388,401.563 707.684,398.039 707.684,393.301C707.684,378.871 662.847,388.784 662.847,360.141C662.847,347.041 673.422,336.125 695.347,336.125C705.041,336.125 714.955,338.439 722.117,342.955L716.609,356.505C709.449,352.428 702.067,350.445 695.236,350.445C684.661,350.445 680.584,354.412 680.584,359.258C680.584,373.47 725.422,363.665 725.422,391.978C725.422,404.878 714.736,415.884 692.702,415.884C680.474,415.884 668.136,412.249 661.305,406.961M785.573,351.991L760.895,351.991L760.895,337.45L828.095,337.45L828.095,351.992L803.42,351.992L803.42,414.566L785.573,414.566L785.573,351.992L785.573,351.991ZM253.3,504.2L253.242,474.85L238.682,499.308L236.034,499.308L221.474,475.023L221.474,504.2L215.949,504.2L215.949,463.914L220.669,463.914L237.474,492.229L254.049,463.914L258.769,463.914L258.827,504.2L253.3,504.2Z" style="fill:white;stroke:white;stroke-width:0.84px;"/>
        </g>
        <g transform="matrix(1.19017,0,0,1.19017,-85.5779,-57.0499)">
            <rect x="293.923" y="463.924" width="5.755" height="40.276" style="fill:white;stroke:white;stroke-width:0.84px;"/>
        </g>
        <g transform="matrix(1.19017,0,0,1.19017,-85.5779,-57.0499)">
            <path d="M331.506,484.067C331.506,472.153 340.6,463.463 352.856,463.463C359.071,463.463 364.482,465.593 368.156,469.737L364.416,473.362C361.309,470.082 357.51,468.586 353.078,468.586C343.986,468.586 337.252,475.146 337.252,484.066C337.252,492.986 343.986,499.546 353.078,499.546C357.51,499.546 361.308,497.992 364.416,494.711L368.156,498.337C364.473,502.482 359.062,504.667 352.789,504.667C340.589,504.667 331.496,495.967 331.496,484.064M426.17,477.966C426.17,472.211 422.313,468.93 414.946,468.93L405.164,468.93L405.164,487.06L414.946,487.06C422.313,487.06 426.17,483.722 426.17,477.967M426.342,504.211L417.642,491.837C416.837,491.895 415.974,491.952 415.112,491.952L405.156,491.952L405.156,504.212L399.4,504.212L399.4,463.926L415.112,463.926C425.586,463.926 431.916,469.22 431.916,477.968C431.916,484.184 428.693,488.673 423.054,490.688L432.608,504.213L426.334,504.213L426.342,504.211ZM498.062,484.067C498.062,475.147 491.386,468.587 482.466,468.587C473.43,468.587 466.754,475.147 466.754,484.067C466.754,492.987 473.43,499.547 482.466,499.547C491.386,499.547 498.062,492.987 498.062,484.067M460.999,484.067C460.999,472.269 470.092,463.463 482.466,463.463C494.726,463.463 503.816,472.213 503.816,484.067C503.816,495.921 494.724,504.67 482.466,504.67C470.092,504.67 460.999,495.865 460.999,484.067M565.903,492.872C565.903,488.21 562.451,486.139 556.063,486.139L542.827,486.139L542.827,499.539L556.063,499.539C562.463,499.539 565.903,497.525 565.903,492.863M542.826,468.577L542.826,481.477L554.624,481.477C560.494,481.477 563.832,479.29 563.832,475.032C563.832,470.774 560.494,468.586 554.624,468.586L542.826,468.586L542.826,468.577ZM571.726,493.323C571.726,500.229 566.489,504.201 556.302,504.201L537.07,504.201L537.07,463.915L555.14,463.915C564.406,463.915 569.585,467.828 569.585,474.332C569.585,478.706 567.341,481.756 564.185,483.31C568.731,484.575 571.725,487.97 571.725,493.323" style="fill:white;stroke:white;stroke-width:0.84px;"/>
        </g>
        <g transform="matrix(1.19017,0,0,1.19017,-85.5779,-57.0499)">
            <rect x="603.66" y="463.924" width="5.755" height="40.276" style="fill:white;stroke:white;stroke-width:0.84px;"/>
        </g>
        <g transform="matrix(1.19017,0,0,1.19017,-85.5779,-57.0499)">
            <path d="M678.306,484.067C678.306,475.147 671.63,468.587 662.71,468.587C653.674,468.587 646.998,475.147 646.998,484.067C646.998,492.987 653.674,499.547 662.71,499.547C671.63,499.547 678.306,492.987 678.306,484.067M641.243,484.067C641.243,472.269 650.335,463.463 662.71,463.463C674.97,463.463 684.06,472.213 684.06,484.067C684.06,495.921 674.968,504.67 662.71,504.67C650.335,504.67 641.243,495.865 641.243,484.067" style="fill:white;stroke:white;stroke-width:0.84px;"/>
        </g>
    </g>
    <g transform="matrix(1.19017,0,0,1.19017,-85.5779,-107.05)">
        <path d="M292.91,95.33C340.452,124.355 375.26,255.77 414.82,271.09L457.608,271.09C401.916,242.065 373.051,112.665 330.942,95.33L292.91,95.33Z" style="fill:rgb(255,137,47);"/>
    </g>
    <g transform="matrix(1.19017,0,0,1.19017,-85.5779,-107.05)">
        <path d="M443.843,95.33C490.966,124.355 525.466,255.77 564.679,271.09L607.091,271.09C551.9,242.064 523.28,112.663 481.54,95.33L443.843,95.33Z" style="fill:rgb(0,124,138);"/>
    </g>
    <g transform="matrix(1.19017,0,0,1.19017,-85.5779,-107.05)">
        <path d="M197.455,95.33C244.578,124.354 279.08,255.77 318.293,271.09L360.703,271.089C305.501,242.064 276.891,112.663 235.153,95.329L197.453,95.329L197.455,95.33Z" style="fill:rgb(0,177,170);"/>
    </g>
    <g transform="matrix(1.19017,0,0,1.19017,-85.5779,-107.05)">
        <path d="M481.54,95.33C434.417,124.355 399.917,255.77 360.704,271.09L318.292,271.09C373.494,242.065 402.104,112.664 443.842,95.33L481.54,95.33Z" style="fill:rgb(0,150,154);"/>
    </g>
    <g transform="matrix(1.19017,0,0,1.19017,-85.5779,-107.05)">
        <path d="M235.152,95.33C188.029,124.354 153.527,255.77 114.314,271.09L71.904,271.089C127.106,242.064 155.716,112.663 197.454,95.329L235.154,95.329L235.152,95.33Z" style="fill:rgb(0,204,186);"/>
    </g>
    <g transform="matrix(1.19017,0,0,1.19017,-85.5779,-107.05)">
        <path d="M541.485,95.33C589.027,124.355 623.835,255.77 663.395,271.09L706.183,271.09C650.491,242.065 621.626,112.665 579.518,95.33L541.483,95.33L541.485,95.33Z" style="fill:rgb(255,56,92);"/>
    </g>
    <g transform="matrix(1.19017,0,0,1.19017,-85.5779,-107.05)">
        <path d="M579.52,95.33C531.978,124.355 497.17,255.77 457.608,271.09L414.82,271.09C470.512,242.065 499.376,112.664 541.485,95.33L579.52,95.33Z" style="fill:rgb(255,98,71);"/>
    </g>
    <g transform="matrix(1.19017,0,0,1.19017,-85.5779,-107.05)">
        <path d="M828.097,95.33C780.555,124.355 745.747,255.77 706.187,271.09L663.399,271.09C719.091,242.065 747.956,112.665 790.064,95.33L828.099,95.33L828.097,95.33Z" style="fill:rgb(255,12,111);"/>
    </g>
</svg>
