<svg xmlns="http://www.w3.org/2000/svg" width="100%" height="100%" viewBox="0 0 900 600" fill-rule="evenodd" stroke-linejoin="round" stroke-miterlimit="1.41421">
    <style><![CDATA[.B{fill-rule:nonzero}]]></style>
    <g class="svg-fill-white">
      <path d="M142.08 414.565l-.11-46.27-22.695 38.118h-8.042L88.65 369.287v45.278H71.904V337.45h14.762l28.864 47.923 28.424-47.923h14.65l.22 77.116H142.08z"/><path d="M210.164 337.45h17.848v77.116h-17.848z"/><path d="M313.5 399.913c15.313 0 25.338-9.144 25.338-23.906S328.814 352.1 313.5 352.1h-16.304v47.813H313.5zm-34.15-62.463h35.033c25.228 0 42.524 15.203 42.524 38.558s-17.296 38.558-42.524 38.558H279.35V337.45zm238.072 0l-25.23 77.116h-19.168l-16.967-52.22-17.516 52.22h-19.06l-25.338-77.116h18.508l17.406 54.202 18.178-54.202h16.525l17.64 54.64 17.957-54.642h17.075zM620.1 400.243v14.322h-59.7V337.45h58.277v14.322h-40.54v16.745h35.804v13.88h-35.804v17.847H620.1zm41.204 6.72l6.06-13.44c6.5 4.736 16.193 8.04 25.448 8.04 10.576 0 14.872-3.524 14.872-8.262 0-14.43-44.837-4.517-44.837-33.16 0-13.1 10.575-24.016 32.5-24.016 9.694 0 19.608 2.314 26.77 6.83l-5.508 13.55c-7.16-4.077-14.542-6.06-21.373-6.06-10.575 0-14.652 3.967-14.652 8.813 0 14.212 44.838 4.407 44.838 32.72 0 12.9-10.686 23.906-32.72 23.906-12.228 0-24.566-3.635-31.397-8.923m124.268-54.97h-24.678V337.45h67.2v14.542H803.42v62.574h-17.847v-62.574zM253.3 504.2l-.058-29.35-14.56 24.458h-2.648l-14.56-24.285V504.2h-5.525v-40.286h4.72l16.805 28.315 16.575-28.315h4.72l.058 40.286H253.3z"/><path d="M293.923 463.924h5.755V504.2h-5.755z"/><path d="M331.506 484.067c0-11.914 9.094-20.604 21.35-20.604 6.215 0 11.626 2.13 15.3 6.274l-3.74 3.625c-3.107-3.28-6.906-4.776-11.338-4.776-9.092 0-15.826 6.56-15.826 15.48s6.734 15.48 15.826 15.48c4.432 0 8.23-1.554 11.338-4.835l3.74 3.626c-3.683 4.145-9.094 6.33-15.367 6.33-12.2 0-21.293-8.7-21.293-20.603m94.674-6.098c0-5.755-3.857-9.036-11.224-9.036h-9.782v18.13h9.782c7.367 0 11.224-3.338 11.224-9.093m.172 26.244l-8.7-12.374c-.805.058-1.668.115-2.53.115h-9.956v12.26H399.4v-40.286h15.712c10.474 0 16.804 5.294 16.804 14.042 0 6.216-3.223 10.705-8.862 12.72l9.554 13.525h-6.274zm71.72-20.144c0-8.92-6.676-15.48-15.596-15.48-9.036 0-15.712 6.56-15.712 15.48s6.676 15.48 15.712 15.48c8.92 0 15.596-6.56 15.596-15.48m-37.063 0c0-11.798 9.093-20.604 21.467-20.604 12.26 0 21.35 8.75 21.35 20.604s-9.092 20.603-21.35 20.603c-12.374 0-21.467-8.805-21.467-20.603m104.904 8.805c0-4.662-3.452-6.733-9.84-6.733h-13.236v13.4h13.236c6.4 0 9.84-2.014 9.84-6.676m-23.077-24.286v12.9h11.798c5.87 0 9.208-2.187 9.208-6.445s-3.338-6.446-9.208-6.446h-11.798zm28.9 24.746c0 6.906-5.237 10.878-15.424 10.878H537.07v-40.286h18.07c9.266 0 14.445 3.913 14.445 10.417 0 4.374-2.244 7.424-5.4 8.978 4.546 1.265 7.54 4.66 7.54 10.013"/><path d="M603.66 463.924h5.755V504.2h-5.755z"/><path d="M678.306 484.067c0-8.92-6.676-15.48-15.596-15.48-9.036 0-15.712 6.56-15.712 15.48s6.676 15.48 15.712 15.48c8.92 0 15.596-6.56 15.596-15.48m-37.063 0c0-11.798 9.092-20.604 21.467-20.604 12.26 0 21.35 8.75 21.35 20.604s-9.092 20.603-21.35 20.603c-12.375 0-21.467-8.805-21.467-20.603"/>
    </g>
    <path d="M292.91 95.33c47.542 29.025 82.35 160.44 121.91 175.76h42.788c-55.692-29.025-84.557-158.425-126.666-175.76H292.91z" fill="#ff892f"/><path d="M443.843 95.33c47.123 29.025 81.623 160.44 120.836 175.76h42.412C551.9 242.064 523.28 112.663 481.54 95.33h-37.697z" fill="#007c8a"/><path d="M197.455 95.33c47.123 29.024 81.625 160.44 120.838 175.76l42.41-.001c-55.202-29.025-83.812-158.426-125.55-175.76h-37.7z" fill="#00b1aa"/><path d="M481.54 95.33c-47.123 29.025-81.623 160.44-120.836 175.76h-42.412c55.202-29.025 83.812-158.426 125.55-175.76h37.697z" fill="#00969a"/><path d="M235.152 95.33c-47.123 29.024-81.625 160.44-120.838 175.76l-42.41-.001c55.202-29.025 83.812-158.426 125.55-175.76h37.7z" fill="#00ccba"/><path d="M541.485 95.33c47.542 29.025 82.35 160.44 121.91 175.76h42.788c-55.692-29.025-84.557-158.425-126.665-175.76h-38.035z" fill="#ff385c"/><path d="M579.52 95.33c-47.542 29.025-82.35 160.44-121.912 175.76H414.82c55.692-29.025 84.556-158.426 126.665-175.76h38.035z" fill="#ff6247"/><path d="M828.097 95.33c-47.542 29.025-82.35 160.44-121.91 175.76h-42.788c55.692-29.025 84.557-158.425 126.665-175.76h38.035z" fill="#ff0c6f"/>
</svg>