<?xml version="1.0" encoding="UTF-8" standalone="no"?>
<!DOCTYPE svg PUBLIC "-//W3C//DTD SVG 1.1//EN" "http://www.w3.org/Graphics/SVG/1.1/DTD/svg11.dtd">
<svg width="100%" height="100%" viewBox="0 0 60 53" version="1.1" xmlns="http://www.w3.org/2000/svg" xmlns:xlink="http://www.w3.org/1999/xlink" xml:space="preserve" xmlns:serif="http://www.serif.com/" style="fill-rule:evenodd;clip-rule:evenodd;stroke-linejoin:round;stroke-miterlimit:2;">
    <g id="XMLID_14_" transform="matrix(1.37533,0,0,1.37533,-99.4595,-1.26255)">
        <rect x="93.342" y="0.929" width="7.279" height="2.124" style="fill:rgb(206,14,45);fill-rule:nonzero;"/>
    </g>
    <g id="XMLID_13_" transform="matrix(1.37533,0,0,1.37533,-99.4595,-1.26255)">
        <path d="M87.964,21.556C87.964,15.76 91.352,11.073 96.358,8.445L96.358,5.596C89.164,7.952 84.006,14.034 84.006,21.555C84.006,25.274 84.975,28.181 86.665,30.784C82.217,30.002 80.3,26.899 80.3,21.555L80.3,0.918L72.317,0.918L72.317,3.043L76.132,3.043L76.132,21.556C76.132,28.973 80.967,32.826 88.326,32.948C91.14,36.077 95.123,38.26 99.648,38.905C100.005,38.958 100.345,38.995 100.627,39.02L100.627,36.91C100.263,36.847 100.011,36.788 100.011,36.788C93.077,35.022 87.964,29.121 87.964,21.556Z" style="fill:rgb(206,14,45);fill-rule:nonzero;"/>
    </g>
    <g id="XMLID_12_" transform="matrix(1.37533,0,0,1.37533,-99.4595,-1.26255)">
        <path d="M104.794,21.556L104.794,6.621C109.717,6.621 112.67,9.549 112.829,12.905L114.66,13.265L115.943,5.794L113.763,5.37L113.497,6.964C109.565,4.986 106.265,4.628 102.986,4.628C102.182,4.628 101.39,4.676 100.612,4.769L100.628,21.556C100.628,24.821 100.156,26.748 98.485,28.803C96.646,26.774 96.356,24.471 96.356,21.556L96.359,12.617C93.919,14.977 92.393,17.909 92.393,21.556C92.393,29.186 98.285,35.145 105.476,35.145C107.944,35.145 110.79,34.542 112.867,33.129L112.343,32.347C109.54,33.778 103.849,34.111 100.372,30.856C103.311,28.687 104.794,25.91 104.794,21.556Z" style="fill:rgb(206,14,45);fill-rule:nonzero;"/>
    </g>
</svg>
