<?xml version="1.0" encoding="UTF-8" standalone="no"?>
<!DOCTYPE svg PUBLIC "-//W3C//DTD SVG 1.1//EN" "http://www.w3.org/Graphics/SVG/1.1/DTD/svg11.dtd">
<svg width="100%" height="100%" viewBox="0 0 1015 1015" version="1.1" xmlns="http://www.w3.org/2000/svg" xmlns:xlink="http://www.w3.org/1999/xlink" xml:space="preserve" xmlns:serif="http://www.serif.com/" style="fill-rule:evenodd;clip-rule:evenodd;stroke-linejoin:round;stroke-miterlimit:2;">
    <path d="M507.54,0.847C227.62,0.847 0.68,227.765 0.68,507.695C0.68,787.621 227.62,1014.54 507.54,1014.54C787.48,1014.54 1014.4,787.621 1014.4,507.695C1014.4,227.765 787.481,0.847 507.54,0.847ZM507.54,989.199C241.601,989.199 26.045,773.625 26.045,507.695C26.045,241.768 241.601,26.183 507.54,26.183C773.477,26.183 989.051,241.767 989.051,507.695C989.051,773.625 773.477,989.199 507.54,989.199Z" style="fill:url(#_Linear1);fill-rule:nonzero;"/>
    <path d="M520.47,176.155L554.004,87.278L554.004,176.155L579.472,176.155L579.472,48.868L541.198,48.868L506.384,140.004L506.715,140.004L471.903,48.868L433.627,48.868L433.627,176.155L459.096,176.155L459.096,87.278L492.629,176.155L520.47,176.155Z" style="fill-rule:nonzero;"/>
    <path d="M869.993,233.231L826.478,296.678L894.826,263.063L913.364,285.294L805.795,339.306L784.059,312.991L825.757,250.122L825.51,249.812L756.153,279.498L734.169,253.36L806.701,157.316L825.243,179.559L779.826,240.718L850.113,209.369L869.993,233.231Z" style="fill-rule:nonzero;"/>
    <path d="M282.107,208.915C271.856,198.964 256.038,195.964 241.168,205.182C244.015,197.819 242.859,190.324 241.354,186.167C234.94,174.505 232.692,173.03 227.455,168.606C210.358,154.282 192.373,166.513 179.525,181.825L117.409,255.853L215.06,337.778L280.56,259.731C295.531,241.893 297.842,224.208 282.107,208.915ZM155.786,244.615L193.097,200.151C197.427,195.005 207.203,195.211 213.472,200.492C220.38,206.287 220.4,214.494 215.761,220.032L178.865,263.982L155.786,244.615ZM258.72,252.008L219.824,298.361L195.469,277.891L234.654,231.18C239.088,225.899 248.967,224.363 255.628,229.951C263.133,236.263 263.875,245.863 258.72,252.008Z" style="fill:rgb(51,51,51);fill-rule:nonzero;"/>
    <path d="M520.74,171.237L554.272,82.362L554.272,171.237L579.743,171.237L579.743,43.95L541.464,43.95L506.653,135.083L506.983,135.083L472.171,43.95L433.892,43.95L433.892,171.237L459.363,171.237L459.363,82.362L492.898,171.237L520.74,171.237Z" style="fill:url(#_Radial2);fill-rule:nonzero;"/>
    <path d="M870.243,224.691L826.747,288.14L895.093,254.514L913.614,276.756L806.06,330.768L784.325,304.443L826.025,241.582L825.78,241.263L756.4,270.961L734.439,244.81L806.971,148.777L825.51,171.011L780.099,232.169L850.36,200.832L870.243,224.691Z" style="fill:url(#_Radial3);fill-rule:nonzero;"/>
    <path d="M277.548,206.41C267.318,196.459 251.479,193.457 236.632,202.667C239.456,195.303 238.302,187.807 236.798,183.671C230.383,171.989 228.156,170.534 222.875,166.101C205.779,151.768 187.816,164.006 174.988,179.332L112.849,253.348L210.502,335.274L276.001,257.215C290.954,239.376 293.283,221.703 277.548,206.41ZM151.231,242.108L188.538,197.655C192.85,192.5 202.624,192.706 208.914,197.974C215.823,203.78 215.844,211.997 211.182,217.514L174.309,261.473L151.231,242.108ZM254.183,249.501L215.287,295.853L190.889,275.383L230.096,228.662C234.529,223.393 244.387,221.856 251.049,227.446C258.596,233.766 259.339,243.346 254.183,249.501Z" style="fill:url(#_Radial4);fill-rule:nonzero;"/>
    <path d="M507.54,204.587L507.541,204.587C674.941,204.587 810.661,340.299 810.661,507.699L507.54,507.699L507.54,810.812C340.142,810.811 204.44,675.1 204.439,507.699L507.54,507.699L507.54,204.587Z" style="fill:url(#_Radial5);fill-rule:nonzero;"/>
    <path d="M813.63,502.305L512.922,502.305L512.922,201.597L502.156,201.597L502.156,502.305L201.448,502.305L201.448,513.072L502.156,513.072L502.156,813.789L512.922,813.789L512.922,513.072L813.63,513.072L813.63,502.305Z" style="fill:url(#_Radial6);fill-rule:nonzero;"/>
    <path d="M512.922,210.114C673.063,212.962 802.288,342.176 805.154,502.305L810.514,502.305C807.651,339.206 676.032,207.569 512.921,204.722L512.921,210.114L512.922,210.114Z" style="fill:url(#_Linear7);fill-rule:nonzero;"/>
    <path d="M209.409,502.265C212.254,341.918 341.665,212.518 502.013,209.661L502.013,204.278C338.677,207.134 206.893,338.947 204.026,502.264L209.409,502.264L209.409,502.265Z" style="fill:rgb(194,215,232);fill-rule:nonzero;"/>
    <path d="M502.156,805.28C342.017,802.436 212.792,673.211 209.945,513.072L204.564,513.072C207.43,676.18 339.048,807.822 502.157,810.666L502.157,805.28L502.156,805.28Z" style="fill:url(#_Linear8);fill-rule:nonzero;"/>
    <path d="M805.155,513.072C802.289,673.211 673.063,802.436 512.923,805.28L512.923,810.666C676.033,807.822 807.67,676.181 810.516,513.072L805.155,513.072Z" style="fill:rgb(18,64,79);fill-rule:nonzero;"/>
    <path d="M496.404,204.279L496.404,496.398L204.294,496.398L204.294,502.162L502.156,502.162L502.156,496.398L502.156,204.279L496.404,204.279Z" style="fill:url(#_Linear9);fill-rule:nonzero;"/>
    <path d="M495.909,807.842L495.909,519.238L206.709,519.238L206.709,513.547L501.6,513.547L501.6,807.842L495.909,807.842Z" style="fill:url(#_Linear10);fill-rule:nonzero;"/>
    <path d="M519.089,807.842L519.089,519.238L807.691,519.238L807.691,513.547L519.089,513.547L513.417,513.547L513.417,807.842L519.089,807.842Z" style="fill:url(#_Linear11);fill-rule:nonzero;"/>
    <path d="M519.089,206.858L519.089,495.46L807.691,495.46L807.691,501.142L519.089,501.142L513.417,501.142L513.417,495.46L513.417,206.858L519.089,206.858Z" style="fill:url(#_Linear12);fill-rule:nonzero;"/>
    <defs>
        <linearGradient id="_Linear1" x1="0" y1="0" x2="1" y2="0" gradientUnits="userSpaceOnUse" gradientTransform="matrix(1075.45,1039.24,-1039.24,1075.45,-73.5168,-53.8014)"><stop offset="0" style="stop-color:rgb(223,244,255);stop-opacity:1"/><stop offset="0.1" style="stop-color:rgb(214,234,245);stop-opacity:1"/><stop offset="0.27" style="stop-color:rgb(191,208,217);stop-opacity:1"/><stop offset="0.49" style="stop-color:rgb(152,165,172);stop-opacity:1"/><stop offset="0.75" style="stop-color:rgb(100,107,110);stop-opacity:1"/><stop offset="1" style="stop-color:rgb(43,43,43);stop-opacity:1"/></linearGradient>
        <radialGradient id="_Radial2" cx="0" cy="0" r="1" gradientUnits="userSpaceOnUse" gradientTransform="matrix(1730.31,0,0,1730.31,-134.966,-38.965)"><stop offset="0" style="stop-color:white;stop-opacity:1"/><stop offset="0.31" style="stop-color:rgb(253,253,253);stop-opacity:1"/><stop offset="0.45" style="stop-color:rgb(246,246,246);stop-opacity:1"/><stop offset="0.56" style="stop-color:rgb(233,233,233);stop-opacity:1"/><stop offset="0.65" style="stop-color:rgb(215,215,215);stop-opacity:1"/><stop offset="0.72" style="stop-color:rgb(191,191,191);stop-opacity:1"/><stop offset="0.79" style="stop-color:rgb(162,162,162);stop-opacity:1"/><stop offset="0.86" style="stop-color:rgb(128,128,128);stop-opacity:1"/><stop offset="0.92" style="stop-color:rgb(87,87,87);stop-opacity:1"/><stop offset="0.97" style="stop-color:rgb(43,43,43);stop-opacity:1"/><stop offset="1" style="stop-color:rgb(20,20,20);stop-opacity:1"/></radialGradient>
        <radialGradient id="_Radial3" cx="0" cy="0" r="1" gradientUnits="userSpaceOnUse" gradientTransform="matrix(1730.46,0,0,1730.46,-135.043,-38.9645)"><stop offset="0" style="stop-color:white;stop-opacity:1"/><stop offset="0.31" style="stop-color:rgb(253,253,253);stop-opacity:1"/><stop offset="0.45" style="stop-color:rgb(246,246,246);stop-opacity:1"/><stop offset="0.56" style="stop-color:rgb(233,233,233);stop-opacity:1"/><stop offset="0.65" style="stop-color:rgb(215,215,215);stop-opacity:1"/><stop offset="0.72" style="stop-color:rgb(191,191,191);stop-opacity:1"/><stop offset="0.79" style="stop-color:rgb(162,162,162);stop-opacity:1"/><stop offset="0.86" style="stop-color:rgb(128,128,128);stop-opacity:1"/><stop offset="0.92" style="stop-color:rgb(87,87,87);stop-opacity:1"/><stop offset="0.97" style="stop-color:rgb(43,43,43);stop-opacity:1"/><stop offset="1" style="stop-color:rgb(20,20,20);stop-opacity:1"/></radialGradient>
        <radialGradient id="_Radial4" cx="0" cy="0" r="1" gradientUnits="userSpaceOnUse" gradientTransform="matrix(1731.79,0,0,1731.79,-135.137,-39.4728)"><stop offset="0" style="stop-color:white;stop-opacity:1"/><stop offset="0.31" style="stop-color:rgb(253,253,253);stop-opacity:1"/><stop offset="0.45" style="stop-color:rgb(246,246,246);stop-opacity:1"/><stop offset="0.56" style="stop-color:rgb(233,233,233);stop-opacity:1"/><stop offset="0.65" style="stop-color:rgb(215,215,215);stop-opacity:1"/><stop offset="0.72" style="stop-color:rgb(191,191,191);stop-opacity:1"/><stop offset="0.79" style="stop-color:rgb(162,162,162);stop-opacity:1"/><stop offset="0.86" style="stop-color:rgb(128,128,128);stop-opacity:1"/><stop offset="0.92" style="stop-color:rgb(87,87,87);stop-opacity:1"/><stop offset="0.97" style="stop-color:rgb(43,43,43);stop-opacity:1"/><stop offset="1" style="stop-color:rgb(20,20,20);stop-opacity:1"/></radialGradient>
        <radialGradient id="_Radial5" cx="0" cy="0" r="1" gradientUnits="userSpaceOnUse" gradientTransform="matrix(678.742,0,0,678.742,302.586,263.695)"><stop offset="0" style="stop-color:white;stop-opacity:1"/><stop offset="0.34" style="stop-color:rgb(253,253,253);stop-opacity:1"/><stop offset="0.48" style="stop-color:rgb(246,246,246);stop-opacity:1"/><stop offset="0.58" style="stop-color:rgb(234,234,234);stop-opacity:1"/><stop offset="0.67" style="stop-color:rgb(216,216,216);stop-opacity:1"/><stop offset="0.74" style="stop-color:rgb(194,194,194);stop-opacity:1"/><stop offset="0.8" style="stop-color:rgb(166,166,166);stop-opacity:1"/><stop offset="0.86" style="stop-color:rgb(132,132,132);stop-opacity:1"/><stop offset="0.91" style="stop-color:rgb(95,95,95);stop-opacity:1"/><stop offset="0.95" style="stop-color:rgb(64,64,64);stop-opacity:1"/><stop offset="0.96" style="stop-color:rgb(64,64,64);stop-opacity:1"/><stop offset="1" style="stop-color:rgb(64,64,64);stop-opacity:1"/><stop offset="1" style="stop-color:black;stop-opacity:1"/></radialGradient>
        <radialGradient id="_Radial6" cx="0" cy="0" r="1" gradientUnits="userSpaceOnUse" gradientTransform="matrix(457.773,0,0,457.773,181.307,206.801)"><stop offset="0" style="stop-color:rgb(230,230,230);stop-opacity:1"/><stop offset="0.1" style="stop-color:rgb(214,214,214);stop-opacity:1"/><stop offset="0.31" style="stop-color:rgb(173,173,173);stop-opacity:1"/><stop offset="0.59" style="stop-color:rgb(108,108,108);stop-opacity:1"/><stop offset="0.93" style="stop-color:rgb(18,18,18);stop-opacity:1"/><stop offset="1" style="stop-color:black;stop-opacity:1"/></radialGradient>
        <linearGradient id="_Linear7" x1="0" y1="0" x2="1" y2="0" gradientUnits="userSpaceOnUse" gradientTransform="matrix(446.418,431.387,-431.387,446.418,447.515,92.5018)"><stop offset="0" style="stop-color:rgb(240,244,255);stop-opacity:1"/><stop offset="0.11" style="stop-color:rgb(235,239,249);stop-opacity:1"/><stop offset="0.25" style="stop-color:rgb(220,224,234);stop-opacity:1"/><stop offset="0.4" style="stop-color:rgb(196,199,207);stop-opacity:1"/><stop offset="0.57" style="stop-color:rgb(162,164,171);stop-opacity:1"/><stop offset="0.75" style="stop-color:rgb(118,119,124);stop-opacity:1"/><stop offset="0.93" style="stop-color:rgb(65,66,67);stop-opacity:1"/><stop offset="1" style="stop-color:rgb(43,43,43);stop-opacity:1"/></linearGradient>
        <linearGradient id="_Linear8" x1="0" y1="0" x2="1" y2="0" gradientUnits="userSpaceOnUse" gradientTransform="matrix(446.426,431.395,-431.395,446.426,85.1678,456.717)"><stop offset="0" style="stop-color:rgb(240,244,255);stop-opacity:1"/><stop offset="0.11" style="stop-color:rgb(235,239,249);stop-opacity:1"/><stop offset="0.25" style="stop-color:rgb(220,224,234);stop-opacity:1"/><stop offset="0.4" style="stop-color:rgb(196,199,207);stop-opacity:1"/><stop offset="0.57" style="stop-color:rgb(162,164,171);stop-opacity:1"/><stop offset="0.75" style="stop-color:rgb(118,119,124);stop-opacity:1"/><stop offset="0.93" style="stop-color:rgb(65,66,67);stop-opacity:1"/><stop offset="1" style="stop-color:rgb(43,43,43);stop-opacity:1"/></linearGradient>
        <linearGradient id="_Linear9" x1="0" y1="0" x2="1" y2="0" gradientUnits="userSpaceOnUse" gradientTransform="matrix(231.489,223.695,-223.695,231.489,301.139,302.888)"><stop offset="0" style="stop-color:rgb(194,215,232);stop-opacity:1"/><stop offset="0.13" style="stop-color:rgb(186,207,225);stop-opacity:1"/><stop offset="0.34" style="stop-color:rgb(164,186,205);stop-opacity:1"/><stop offset="0.6" style="stop-color:rgb(128,152,172);stop-opacity:1"/><stop offset="0.89" style="stop-color:rgb(78,105,127);stop-opacity:1"/><stop offset="1" style="stop-color:rgb(58,86,109);stop-opacity:1"/></linearGradient>
        <linearGradient id="_Linear10" x1="0" y1="0" x2="1" y2="0" gradientUnits="userSpaceOnUse" gradientTransform="matrix(441.933,427.053,-427.053,441.933,185.204,357.701)"><stop offset="0" style="stop-color:rgb(240,244,255);stop-opacity:1"/><stop offset="0.1" style="stop-color:rgb(232,235,246);stop-opacity:1"/><stop offset="0.26" style="stop-color:rgb(209,212,221);stop-opacity:1"/><stop offset="0.46" style="stop-color:rgb(171,174,181);stop-opacity:1"/><stop offset="0.7" style="stop-color:rgb(120,121,125);stop-opacity:1"/><stop offset="0.96" style="stop-color:rgb(54,54,55);stop-opacity:1"/><stop offset="1" style="stop-color:rgb(43,43,43);stop-opacity:1"/></linearGradient>
        <linearGradient id="_Linear11" x1="0" y1="0" x2="1" y2="0" gradientUnits="userSpaceOnUse" gradientTransform="matrix(155.018,149.798,-149.798,155.018,510.937,516.114)"><stop offset="0" style="stop-color:rgb(217,222,240);stop-opacity:1"/><stop offset="0.12" style="stop-color:rgb(212,218,236);stop-opacity:1"/><stop offset="0.26" style="stop-color:rgb(199,207,226);stop-opacity:1"/><stop offset="0.41" style="stop-color:rgb(176,188,209);stop-opacity:1"/><stop offset="0.57" style="stop-color:rgb(144,161,184);stop-opacity:1"/><stop offset="0.72" style="stop-color:rgb(103,127,153);stop-opacity:1"/><stop offset="0.88" style="stop-color:rgb(53,86,116);stop-opacity:1"/><stop offset="0.97" style="stop-color:rgb(23,61,93);stop-opacity:1"/><stop offset="1" style="stop-color:rgb(23,61,93);stop-opacity:1"/></linearGradient>
        <linearGradient id="_Linear12" x1="0" y1="0" x2="1" y2="0" gradientUnits="userSpaceOnUse" gradientTransform="matrix(441.454,426.591,-426.591,441.454,352.358,195.623)"><stop offset="0" style="stop-color:rgb(240,244,255);stop-opacity:1"/><stop offset="0.11" style="stop-color:rgb(235,239,249);stop-opacity:1"/><stop offset="0.25" style="stop-color:rgb(220,224,234);stop-opacity:1"/><stop offset="0.4" style="stop-color:rgb(196,199,207);stop-opacity:1"/><stop offset="0.57" style="stop-color:rgb(162,164,171);stop-opacity:1"/><stop offset="0.75" style="stop-color:rgb(118,119,124);stop-opacity:1"/><stop offset="0.93" style="stop-color:rgb(65,66,67);stop-opacity:1"/><stop offset="1" style="stop-color:rgb(43,43,43);stop-opacity:1"/></linearGradient>
    </defs>
</svg>
