<?xml version="1.0" encoding="UTF-8" standalone="no"?>
<!DOCTYPE svg PUBLIC "-//W3C//DTD SVG 1.1//EN" "http://www.w3.org/Graphics/SVG/1.1/DTD/svg11.dtd">
<svg width="100%" height="100%" viewBox="0 0 512 512" version="1.1" xmlns="http://www.w3.org/2000/svg" xmlns:xlink="http://www.w3.org/1999/xlink" xml:space="preserve" xmlns:serif="http://www.serif.com/" style="fill-rule:evenodd;clip-rule:evenodd;stroke-linecap:round;stroke-linejoin:round;stroke-miterlimit:1.5;">
    <g transform="matrix(-1.83697e-16,1,-1,-1.83697e-16,512,5.68434e-14)">
        <rect x="0" y="0" width="512" height="512" style="fill:url(#_Linear1);"/>
    </g>
    <g>
        <path d="M49.322,98.223L64.168,78.146L101.003,87.646L115.384,57.973" style="fill:none;stroke:rgb(242,242,242);stroke-width:6px;"/>
        <g transform="matrix(0.748921,0,0,0.874536,15.9528,9.80444)">
            <ellipse cx="64.168" cy="78.146" rx="6.009" ry="5.146" style="fill:rgb(242,242,242);"/>
        </g>
        <g transform="matrix(0.748921,0,0,0.874536,52.8616,19.3044)">
            <ellipse cx="64.168" cy="78.146" rx="6.009" ry="5.146" style="fill:rgb(242,242,242);"/>
        </g>
        <g transform="matrix(0.748921,0,0,0.874536,67.1034,-10.6956)">
            <ellipse cx="64.168" cy="78.146" rx="6.009" ry="5.146" style="fill:rgb(242,242,242);"/>
        </g>
        <g transform="matrix(0.748921,0,0,0.874536,0.542667,29.8818)">
            <ellipse cx="64.168" cy="78.146" rx="6.009" ry="5.146" style="fill:rgb(242,242,242);"/>
        </g>
    </g>
    <path d="M512,512L0,512L0,161.226L197.231,161.226C202.101,161.226 206.262,164.734 207.086,169.534C211.042,192.966 231.45,210.836 256,210.836C280.55,210.836 300.958,192.966 304.916,169.535C305.74,164.736 309.901,161.228 314.769,161.228C354.752,161.226 512,161.226 512,161.226L512,512Z" style="fill:url(#_Linear2);"/>
    <g transform="matrix(1.02399,0,0,0.987853,-10.2349,6.21952)">
        <path d="M510,337.885C509.711,333.151 503.333,348.008 500,348.008C496.667,348.008 493.333,337.885 490,337.885C486.667,337.885 483.333,348.008 480,348.008C476.667,348.008 473.333,337.885 470,337.885C466.667,337.885 463.333,348.008 460,348.008C456.667,348.008 453.333,337.885 450,337.885C446.667,337.885 443.333,348.008 440,348.008C436.667,348.008 433.333,337.885 430,337.885C426.667,337.885 423.333,348.008 420,348.008C416.667,348.008 413.333,337.885 410,337.885C406.667,337.885 403.333,348.008 400,348.008C396.667,348.008 393.333,337.885 390,337.885C386.667,337.885 383.333,348.008 380,348.008C376.667,348.008 373.333,337.885 370,337.885C366.667,337.885 363.333,348.008 360,348.008C356.667,348.008 353.333,337.885 350,337.885C346.667,337.885 343.5,348.008 340,348.008C336.5,348.008 332.333,337.885 329,337.885C325.667,337.885 323.167,348.008 320,348.008C316.833,348.008 313.333,337.885 310,337.885C306.667,337.885 303.333,348.008 300,348.008C296.667,348.008 293.333,337.885 290,337.885C286.667,337.885 283.333,348.008 280,348.008C276.667,348.008 273.333,337.885 270,337.885C266.667,337.885 263.333,348.008 260,348.008C256.667,348.008 253.333,337.885 250,337.885C246.667,337.885 243.333,348.008 240,348.008C236.667,348.008 233.333,337.885 230,337.885C226.667,337.885 223.333,348.008 220,348.008C216.667,348.008 213.333,337.885 210,337.885C206.667,337.885 203.333,348.008 200,348.008C196.667,348.008 193.333,337.885 190,337.885C186.667,337.885 183.333,348.008 180,348.008C176.667,348.008 173.333,337.885 170,337.885C166.667,337.885 163.333,348.008 160,348.008C156.667,348.008 153.333,337.885 150,337.885C146.667,337.885 143.333,348.008 140,348.008C136.667,348.008 133.333,337.885 130,337.885C126.667,337.885 123.333,348.008 120,348.008C116.667,348.008 113.333,337.885 110,337.885C106.667,337.885 103.333,348.008 100,348.008C96.667,348.008 93.333,337.885 90,337.885C86.667,337.885 83.333,348.008 80,348.008C76.667,348.008 73.333,337.885 70,337.885C66.667,337.885 63.333,348.008 60,348.008C56.667,348.008 53.333,337.885 50,337.885C46.667,337.885 43.333,348.008 40,348.008C36.667,348.008 33.333,337.885 30,337.885C26.667,337.885 23.333,348.008 20,348.008C16.667,348.008 10.289,333.151 10,337.885C8.333,365.217 9.995,512 9.995,512L510,512C510,512 511.667,365.217 510,337.885Z" style="fill:rgb(255,149,0);"/>
    </g>
    <path d="M82.475,383.761L82.464,401.628L103.202,406.54L61.726,416.04L103.546,425.54L61.726,435.04L103.546,444.54L82.464,449.607L82.47,467.319" style="fill:none;stroke:rgb(242,242,242);stroke-width:6px;"/>
    <path d="M79.497,281.689L79.465,297.231C76.697,296.207 74.195,293.809 71.982,290.566C70.277,288.066 68.774,285.072 67.518,281.689L79.497,281.689ZM85.497,281.689L97.409,281.689C96.154,285.072 94.651,288.066 92.945,290.566C90.733,293.808 88.232,296.205 85.465,297.23L85.497,281.689ZM60.13,281.689L49.524,281.689C53.867,287.249 59.586,291.683 66.169,294.477C63.796,290.99 61.741,286.652 60.13,281.689ZM115.404,281.689L104.797,281.689C103.186,286.653 101.131,290.99 98.758,294.477C105.339,291.684 111.059,287.25 115.404,281.689ZM56.372,259.503L40.83,259.503C41.281,264.921 42.767,270.047 45.091,274.683L58.248,274.683C57.224,269.965 56.572,264.857 56.372,259.503ZM79.543,259.503L79.512,274.683L65.409,274.683C64.226,269.707 63.588,264.611 63.382,259.503L79.543,259.503ZM101.545,259.503C101.34,264.611 100.701,269.707 99.518,274.683L85.512,274.683L85.543,259.503L101.545,259.503ZM124.098,259.503L108.555,259.503C108.356,264.857 107.703,269.965 106.679,274.683L119.836,274.683C122.16,270.049 123.647,264.922 124.098,259.503ZM58.248,237.317L45.091,237.317C42.767,241.951 41.281,247.078 40.83,252.497L56.372,252.497C56.572,247.143 57.224,242.035 58.248,237.317ZM79.588,237.317L79.557,252.497L63.382,252.497C63.588,247.389 64.226,242.293 65.409,237.317L79.588,237.317ZM99.518,237.317C100.701,242.293 101.34,247.389 101.545,252.497L85.557,252.497L85.588,237.317L99.518,237.317ZM119.836,237.317L106.679,237.317C107.703,242.035 108.356,247.143 108.555,252.497L124.098,252.497C123.647,247.079 122.16,241.953 119.836,237.317ZM66.169,217.523C59.588,220.316 53.868,224.75 49.524,230.311L60.13,230.311C61.741,225.347 63.797,221.01 66.169,217.523ZM79.635,214.708L79.603,230.311L67.518,230.311C68.774,226.928 70.277,223.934 71.982,221.434C74.24,218.125 76.799,215.697 79.635,214.708ZM85.634,214.835C88.334,215.894 90.779,218.259 92.945,221.434C94.651,223.934 96.154,226.928 97.409,230.311L85.603,230.311L85.634,214.835ZM98.758,217.523C101.131,221.01 103.187,225.348 104.797,230.311L115.404,230.311C111.061,224.751 105.341,220.317 98.758,217.523Z" style="fill:rgb(242,242,242);"/>
    <defs>
        <linearGradient id="_Linear1" x1="0" y1="0" x2="1" y2="0" gradientUnits="userSpaceOnUse" gradientTransform="matrix(512,0,0,512,0,256)"><stop offset="0" style="stop-color:rgb(52,170,220);stop-opacity:1"/><stop offset="0.25" style="stop-color:rgb(52,170,220);stop-opacity:1"/><stop offset="0.4" style="stop-color:rgb(34,153,196);stop-opacity:1"/><stop offset="1" style="stop-color:rgb(34,150,196);stop-opacity:1"/></linearGradient>
        <linearGradient id="_Linear2" x1="0" y1="0" x2="1" y2="0" gradientUnits="userSpaceOnUse" gradientTransform="matrix(2.95061e-14,350.774,-240.317,2.02148e-14,256,161.226)"><stop offset="0" style="stop-color:rgb(76,217,100);stop-opacity:1"/><stop offset="0.4" style="stop-color:rgb(76,217,100);stop-opacity:1"/><stop offset="0.6" style="stop-color:rgb(42,198,68);stop-opacity:1"/><stop offset="1" style="stop-color:rgb(42,198,68);stop-opacity:1"/></linearGradient>
    </defs>
</svg>
