<?xml version="1.0" encoding="UTF-8" standalone="no"?>
<!DOCTYPE svg PUBLIC "-//W3C//DTD SVG 1.1//EN" "http://www.w3.org/Graphics/SVG/1.1/DTD/svg11.dtd">
<svg width="100%" height="100%" viewBox="0 0 512 512" version="1.1" xmlns="http://www.w3.org/2000/svg" xmlns:xlink="http://www.w3.org/1999/xlink" xml:space="preserve" xmlns:serif="http://www.serif.com/" style="fill-rule:evenodd;clip-rule:evenodd;stroke-linejoin:round;stroke-miterlimit:2;">
    <g transform="matrix(-1.83697e-16,1,-1,-1.83697e-16,512,5.68434e-14)">
        <rect x="0" y="0" width="512" height="512" style="fill:url(#_Linear1);"/>
    </g>
    <path d="M256,37.367C376.667,37.367 474.633,135.333 474.633,256C474.633,376.667 376.667,474.633 256,474.633C135.333,474.633 37.367,376.667 37.367,256C37.367,135.333 135.333,37.367 256,37.367ZM260.385,71.922C257.179,71.839 253.972,71.839 250.766,71.922L248.652,90.376C241.729,90.666 234.832,91.391 228.001,92.547L222.096,74.936C218.943,75.52 215.806,76.187 212.688,76.936L214.456,95.426C207.745,97.149 201.15,99.292 194.708,101.842L185.27,85.844C182.308,87.071 179.378,88.376 176.484,89.756L182.058,107.475C175.852,110.555 169.846,114.023 164.075,117.857L151.518,104.17C148.875,105.987 146.28,107.872 143.736,109.824L152.872,125.996C147.443,130.3 142.289,134.94 137.441,139.89L122.313,129.114C120.105,131.44 117.959,133.823 115.877,136.261L128.175,150.181C123.759,155.519 119.683,161.13 115.971,166.979L98.932,159.584C97.256,162.318 95.653,165.096 94.123,167.914L109.047,178.972C105.837,185.112 103.016,191.447 100.601,197.941L82.397,194.25C81.327,197.272 80.336,200.323 79.425,203.397L96.322,211.111C94.459,217.784 93.017,224.568 92.005,231.421L73.431,231.596C73.013,234.775 72.677,237.964 72.426,241.161L90.557,245.193C90.122,252.108 90.122,259.043 90.557,265.957L72.426,269.99C72.677,273.186 73.013,276.376 73.431,279.555L92.005,279.729C93.017,286.583 94.459,293.367 96.322,300.04L79.425,307.754C80.336,310.828 81.327,313.878 82.397,316.901L100.601,313.21C103.016,319.704 105.837,326.039 109.047,332.179L94.123,343.237C95.653,346.055 97.256,348.833 98.932,351.567L115.971,344.171C119.683,350.021 123.759,355.632 128.175,360.97L115.877,374.889C117.959,377.328 120.105,379.711 122.313,382.037L137.441,371.261C142.289,376.211 147.443,380.851 152.872,385.155L143.736,401.327C146.28,403.279 148.875,405.164 151.518,406.981L164.075,393.294C169.846,397.128 175.852,400.596 182.058,403.676L176.484,421.395C179.378,422.775 182.308,424.08 185.27,425.307L194.708,409.309C201.15,411.859 207.745,414.002 214.456,415.725L212.688,434.215C215.806,434.964 218.943,435.631 222.096,436.215L228.001,418.604C234.832,419.76 241.729,420.485 248.652,420.775L250.766,439.228C253.972,439.312 257.179,439.312 260.385,439.228L262.499,420.775C269.421,420.485 276.318,419.76 283.15,418.604L289.055,436.215C292.208,435.631 295.345,434.964 298.463,434.215L296.695,415.725C303.405,414.002 310.001,411.859 316.443,409.309L325.88,425.307C328.843,424.08 331.773,422.775 334.667,421.395L329.093,403.676C335.299,400.596 341.305,397.128 347.076,393.294L359.633,406.981C362.276,405.164 364.871,403.279 367.415,401.327L358.279,385.155C363.708,380.851 368.862,376.211 373.709,371.261L388.838,382.037C391.046,379.711 393.192,377.328 395.274,374.889L382.975,360.97C387.392,355.632 391.468,350.021 395.18,344.171L412.219,351.567C413.894,348.833 415.498,346.055 417.028,343.237L402.104,332.179C405.314,326.039 408.135,319.704 410.55,313.21L428.754,316.901C429.824,313.878 430.815,310.828 431.726,307.754L414.829,300.04C416.692,293.367 418.134,286.583 419.146,279.729L437.72,279.555C438.138,276.376 438.473,273.186 438.725,269.99L420.593,265.957C421.028,259.043 421.028,252.108 420.593,245.193L438.725,241.161C438.473,237.964 438.138,234.775 437.72,231.596L419.146,231.421C418.134,224.568 416.692,217.784 414.829,211.111L431.726,203.397C430.815,200.323 429.824,197.272 428.754,194.25L410.55,197.941C408.135,191.447 405.314,185.112 402.104,178.972L417.028,167.914C415.498,165.096 413.894,162.318 412.219,159.584L395.18,166.979C391.468,161.13 387.392,155.519 382.975,150.181L395.274,136.261C393.192,133.823 391.046,131.44 388.838,129.114L373.709,139.89C368.862,134.94 363.708,130.3 358.279,125.996L367.415,109.824C364.871,107.872 362.276,105.987 359.633,104.17L347.076,117.857C341.305,114.023 335.299,110.555 329.093,107.475L334.667,89.756C331.773,88.376 328.843,87.071 325.88,85.844L316.443,101.842C310.001,99.292 303.405,97.149 296.695,95.426L298.463,76.936C295.345,76.187 292.208,75.52 289.055,74.936L283.15,92.547C276.318,91.391 269.421,90.666 262.499,90.376L260.385,71.922ZM402.356,263.14C398.539,338.241 338.243,398.538 263.14,402.356L263.14,321.406L248.01,321.406L248.01,402.356C173.036,398.552 112.806,338.44 108.813,263.497L190.891,263.497C194.646,296.076 222.354,321.406 255.932,321.406C289.633,321.406 317.421,295.89 321.013,263.14L402.356,263.14ZM255.932,210.486C281.015,210.486 301.379,230.85 301.379,255.932C301.379,281.015 281.015,301.379 255.932,301.379C230.85,301.379 210.486,281.015 210.486,255.932C210.486,230.85 230.85,210.486 255.932,210.486ZM248.01,190.933L248.01,108.794C172.791,112.619 112.424,173.097 108.777,248.367L190.891,248.367C194.347,218.389 218.085,194.547 248.01,190.933ZM263.14,108.794L263.14,190.851C293.283,194.158 317.298,217.961 320.931,248.01L402.356,248.01C398.538,172.908 338.241,112.611 263.14,108.794Z" style="fill:rgb(90,90,90);"/>
    <defs>
        <linearGradient id="_Linear1" x1="0" y1="0" x2="1" y2="0" gradientUnits="userSpaceOnUse" gradientTransform="matrix(512,0,0,512,0,256)"><stop offset="0" style="stop-color:rgb(220,220,220);stop-opacity:1"/><stop offset="1" style="stop-color:rgb(150,150,150);stop-opacity:1"/></linearGradient>
    </defs>
</svg>
