<?xml version="1.0" encoding="UTF-8" standalone="no"?>
<!DOCTYPE svg PUBLIC "-//W3C//DTD SVG 1.1//EN" "http://www.w3.org/Graphics/SVG/1.1/DTD/svg11.dtd">
<svg width="100%" height="100%" viewBox="0 0 512 512" version="1.1" xmlns="http://www.w3.org/2000/svg" xmlns:xlink="http://www.w3.org/1999/xlink" xml:space="preserve" xmlns:serif="http://www.serif.com/" style="fill-rule:evenodd;clip-rule:evenodd;stroke-linejoin:round;stroke-miterlimit:2;">
    <g transform="matrix(-1.83697e-16,1,-1,-1.83697e-16,512,5.68434e-14)">
        <rect x="0" y="0" width="512" height="512" style="fill:url(#_Linear1);"/>
    </g>
    <g transform="matrix(0.899608,0,0,1.25563,25.7004,-65.4419)">
        <path d="M252.402,299.564C254.764,300.282 257.236,300.282 259.598,299.564L364.25,266.675L364.25,330.472C293.041,369.99 220.872,369.913 147.75,330.472L147.75,266.675L252.402,299.564ZM435.964,290.828L435.964,231.559L256,288.116L39.31,220.018L256,151.919L472.69,220.018L447.964,227.788L447.964,290.944C449.767,292.59 450.899,294.959 450.899,297.591C450.899,302.558 446.866,306.591 441.899,306.591C436.932,306.591 432.899,302.558 432.899,297.591C432.899,294.897 434.085,292.478 435.964,290.828Z" style="fill:white;"/>
    </g>
    <defs>
        <linearGradient id="_Linear1" x1="0" y1="0" x2="1" y2="0" gradientUnits="userSpaceOnUse" gradientTransform="matrix(512,0,0,512,0,256)"><stop offset="0" style="stop-color:rgb(244,166,25);stop-opacity:1"/><stop offset="1" style="stop-color:rgb(232,100,43);stop-opacity:1"/></linearGradient>
    </defs>
</svg>
