<?xml version="1.0" encoding="UTF-8" standalone="no"?>
<!DOCTYPE svg PUBLIC "-//W3C//DTD SVG 1.1//EN" "http://www.w3.org/Graphics/SVG/1.1/DTD/svg11.dtd">
<svg width="100%" height="100%" viewBox="0 0 512 512" version="1.1" xmlns="http://www.w3.org/2000/svg" xmlns:xlink="http://www.w3.org/1999/xlink" xml:space="preserve" xmlns:serif="http://www.serif.com/" style="fill-rule:evenodd;clip-rule:evenodd;stroke-linejoin:round;stroke-miterlimit:2;">
    <g transform="matrix(-1.83697e-16,1,-1,-1.83697e-16,512,5.68434e-14)">
        <rect x="0" y="0" width="512" height="512" style="fill:url(#_Linear1);"/>
    </g>
    <g transform="matrix(0.982142,0,0,0.999147,4.57166,0.218439)">
        <path d="M277,270.8L424.281,202.867L424.281,372.983C424.281,378.502 419.8,382.983 414.281,382.983L97.719,382.983C96.326,382.966 94.946,382.695 93.671,382.128C91.318,381.081 89.411,379.108 88.444,376.722C87.963,375.538 87.719,374.26 87.719,372.983C87.719,316.278 87.719,259.572 87.719,202.867L235,270.8L235,292.925C235,296.239 237.686,298.925 241,298.925L271,298.925C274.314,298.925 277,296.239 277,292.925L277,270.8ZM265,286.925L247,286.925L247,258.925L265,258.925L265,286.925ZM235,257.585L87.719,189.652L87.719,174.774C87.719,169.255 92.2,164.774 97.719,164.774L196.25,164.774L196.25,149.896C196.25,138.373 205.606,129.017 217.129,129.017L294.871,129.017C306.394,129.017 315.75,138.373 315.75,149.896L315.75,164.774L414.281,164.774L414.41,164.775C415.578,164.803 416.739,165.006 417.832,165.424C420.406,166.408 422.514,168.473 423.553,171.025C424.035,172.212 424.281,173.493 424.281,174.774C424.281,179.733 424.281,184.693 424.281,189.652L277,257.585L277,252.925C277,249.611 274.314,246.925 271,246.925L241,246.925C237.686,246.925 235,249.611 235,252.925L235,257.585ZM294.871,141.017L217.129,141.017L217.014,141.018C216.011,141.037 215.02,141.211 214.077,141.557C211.611,142.46 209.626,144.469 208.753,146.947C208.418,147.895 208.257,148.891 208.25,149.896L208.25,164.774L303.75,164.774L303.75,149.896C303.743,148.891 303.582,147.895 303.247,146.947C302.374,144.469 300.389,142.46 297.923,141.557C296.98,141.211 295.989,141.037 294.986,141.018L294.871,141.017Z" style="fill:white;"/>
    </g>
    <defs>
        <linearGradient id="_Linear1" x1="0" y1="0" x2="1" y2="0" gradientUnits="userSpaceOnUse" gradientTransform="matrix(512,0,0,512,0,256)"><stop offset="0" style="stop-color:rgb(66,112,225);stop-opacity:1"/><stop offset="1" style="stop-color:rgb(94,240,240);stop-opacity:1"/></linearGradient>
    </defs>
</svg>
