<?xml version="1.0" encoding="UTF-8" standalone="no"?>
<!DOCTYPE svg PUBLIC "-//W3C//DTD SVG 1.1//EN" "http://www.w3.org/Graphics/SVG/1.1/DTD/svg11.dtd">
<svg width="100%" height="100%" viewBox="0 0 512 512" version="1.1" xmlns="http://www.w3.org/2000/svg" xmlns:xlink="http://www.w3.org/1999/xlink" xml:space="preserve" xmlns:serif="http://www.serif.com/" style="fill-rule:evenodd;clip-rule:evenodd;stroke-linejoin:round;stroke-miterlimit:2;">
    <g transform="matrix(-1.83697e-16,1,-1,-1.83697e-16,512,5.68434e-14)">
        <rect x="0" y="0" width="512" height="512" style="fill:url(#_Linear1);"/>
    </g>
    <g transform="matrix(0.861261,0,0,0.861261,35.6768,38.8458)">
        <path d="M252.167,275.174C252.342,314.146 252.518,353.12 252.167,392.091C252.098,399.725 245.855,406.091 238.167,406.091C230.484,406.091 224.23,399.725 224.167,392.091C223.902,359.749 224.115,250.598 224.236,198.946L142.861,198.946C135.134,198.946 128.861,192.673 128.861,184.946C128.861,177.219 135.134,170.946 142.861,170.946L368.769,170.946C376.496,170.946 382.769,177.219 382.769,184.946C382.769,192.673 376.496,198.946 368.769,198.946L288.301,198.946L288.089,392.091C288.074,393.591 287.882,395.089 287.43,396.523C286.719,398.776 285.384,400.812 283.575,402.336C278.388,406.705 270.034,406.929 264.738,402.617C264.181,402.164 263.664,401.664 263.196,401.12C262.526,400.34 261.956,399.473 261.502,398.55C260.515,396.542 260.115,394.315 260.089,392.091L260.089,275.174L252.167,275.174ZM255.815,98.18C273.556,98.18 287.96,112.583 287.96,130.325C287.96,148.066 273.556,162.47 255.815,162.47C238.073,162.47 223.669,148.066 223.669,130.325C223.669,112.583 238.073,98.18 255.815,98.18Z" style="fill:white;"/>
    </g>
    <g transform="matrix(0.8865,0,0,0.874182,22.2447,26.8508)">
        <path d="M375.534,494.689L151.833,494.689C86.68,494.689 33.785,441.048 33.785,374.978L33.785,149.282C33.785,83.211 86.68,29.57 151.833,29.57L375.534,29.57C440.686,29.57 493.582,83.211 493.582,149.282C493.582,149.282 493.582,374.978 493.582,374.978C493.582,441.048 440.686,494.689 375.534,494.689ZM375.534,36.434L151.833,36.434C90.416,36.434 40.553,86.999 40.553,149.282L40.553,374.978C40.553,437.26 90.416,487.826 151.833,487.826L375.534,487.826C436.951,487.826 486.814,437.26 486.814,374.978L486.814,149.282C486.814,86.999 436.951,36.434 375.534,36.434Z" style="fill:white;"/>
    </g>
    <defs>
        <linearGradient id="_Linear1" x1="0" y1="0" x2="1" y2="0" gradientUnits="userSpaceOnUse" gradientTransform="matrix(512,0,0,512,0,256)"><stop offset="0" style="stop-color:rgb(250,215,96);stop-opacity:1"/><stop offset="1" style="stop-color:rgb(233,155,30);stop-opacity:1"/></linearGradient>
    </defs>
</svg>
