<?xml version="1.0" encoding="UTF-8" standalone="no"?>
<!DOCTYPE svg PUBLIC "-//W3C//DTD SVG 1.1//EN" "http://www.w3.org/Graphics/SVG/1.1/DTD/svg11.dtd">
<svg width="100%" height="100%" viewBox="0 0 1182 1182" version="1.1" xmlns="http://www.w3.org/2000/svg" xmlns:xlink="http://www.w3.org/1999/xlink" xml:space="preserve" xmlns:serif="http://www.serif.com/" style="fill-rule:evenodd;clip-rule:evenodd;stroke-linejoin:round;stroke-miterlimit:1.41421;">
    <g transform="matrix(22.0653,0,0,22.0654,254.684,554.77)">
        <path d="M0,0.461C-2.802,-0.185 -5.812,1.028 -7.325,3.648C-9.18,6.86 -8.079,10.968 -4.867,12.822C-1.654,14.677 2.453,13.576 4.308,10.364C5.817,7.751 5.369,4.544 3.419,2.441C3.502,1.907 3.595,1.148 3.984,0.474C4.359,-0.176 4.939,-0.626 5.358,-0.961C5.452,-0.939 5.546,-0.926 5.64,-0.908C5.714,-0.894 5.789,-0.88 5.864,-0.869C5.996,-0.849 6.126,-0.834 6.258,-0.822C6.35,-0.813 6.441,-0.807 6.533,-0.802C6.646,-0.796 6.759,-0.794 6.872,-0.794C6.985,-0.794 7.098,-0.796 7.211,-0.802C7.303,-0.807 7.395,-0.813 7.486,-0.822C7.617,-0.834 7.749,-0.849 7.879,-0.869C7.955,-0.88 8.029,-0.894 8.104,-0.908C8.198,-0.926 8.292,-0.939 8.386,-0.961C8.804,-0.626 9.385,-0.176 9.76,0.474C10.149,1.148 10.242,1.907 10.325,2.441C8.375,4.544 7.927,7.751 9.436,10.364C11.291,13.576 15.398,14.677 18.611,12.822C21.823,10.968 22.923,6.86 21.069,3.648C19.556,1.028 16.546,-0.185 13.744,0.461C13.323,0.123 12.715,-0.336 12.327,-1.008C11.953,-1.656 11.853,-2.381 11.772,-2.91C11.812,-2.953 11.849,-2.997 11.888,-3.04C11.892,-3.045 11.896,-3.05 11.899,-3.054C12.2,-3.393 12.46,-3.758 12.683,-4.143C12.684,-4.144 12.685,-4.145 12.686,-4.147C12.688,-4.15 12.688,-4.153 12.69,-4.157C12.799,-4.345 12.897,-4.537 12.986,-4.734C12.998,-4.76 13.008,-4.787 13.02,-4.813C13.095,-4.985 13.165,-5.16 13.225,-5.338C13.24,-5.383 13.253,-5.427 13.268,-5.472C13.319,-5.634 13.366,-5.798 13.405,-5.963C13.417,-6.015 13.428,-6.067 13.438,-6.119C13.473,-6.282 13.502,-6.446 13.524,-6.611C13.531,-6.659 13.536,-6.706 13.542,-6.754C13.561,-6.928 13.574,-7.101 13.581,-7.276C13.582,-7.311 13.583,-7.346 13.583,-7.381C13.586,-7.569 13.583,-7.756 13.57,-7.944C13.569,-7.965 13.567,-7.985 13.566,-8.006C13.551,-8.204 13.528,-8.401 13.495,-8.598C13.493,-8.61 13.491,-8.622 13.489,-8.634C13.455,-8.832 13.413,-9.03 13.36,-9.226C13.356,-9.24 13.352,-9.254 13.348,-9.268C13.297,-9.456 13.238,-9.643 13.169,-9.828C13.159,-9.855 13.148,-9.883 13.137,-9.91C13.073,-10.078 13.003,-10.244 12.923,-10.409C12.901,-10.455 12.876,-10.5 12.854,-10.546C12.799,-10.652 12.751,-10.759 12.691,-10.863C12.668,-10.903 12.64,-10.939 12.616,-10.978C12.585,-11.031 12.55,-11.081 12.517,-11.132C12.43,-11.268 12.341,-11.403 12.245,-11.531C12.216,-11.57 12.184,-11.606 12.154,-11.644C12.046,-11.783 11.936,-11.918 11.818,-12.046C11.797,-12.069 11.774,-12.09 11.753,-12.113C11.62,-12.254 11.483,-12.39 11.34,-12.518C11.326,-12.531 11.309,-12.543 11.294,-12.556C11.14,-12.691 10.981,-12.819 10.817,-12.938C10.799,-12.951 10.78,-12.962 10.762,-12.975C10.598,-13.092 10.43,-13.202 10.256,-13.303C10.246,-13.309 10.237,-13.315 10.227,-13.321C10.201,-13.336 10.174,-13.347 10.147,-13.362C9.994,-13.448 9.838,-13.529 9.678,-13.602C9.612,-13.633 9.546,-13.66 9.479,-13.687C9.35,-13.742 9.221,-13.794 9.089,-13.84C8.997,-13.872 8.904,-13.901 8.811,-13.929C8.701,-13.962 8.592,-13.994 8.481,-14.021C8.373,-14.048 8.264,-14.071 8.155,-14.092C8.054,-14.111 7.953,-14.13 7.851,-14.145C7.737,-14.162 7.624,-14.175 7.51,-14.185C7.407,-14.195 7.304,-14.204 7.201,-14.208C7.091,-14.214 6.981,-14.216 6.872,-14.216C6.762,-14.216 6.653,-14.214 6.543,-14.208C6.44,-14.204 6.337,-14.195 6.234,-14.185C6.12,-14.175 6.007,-14.162 5.894,-14.145C5.792,-14.13 5.69,-14.111 5.589,-14.092C5.48,-14.071 5.372,-14.048 5.263,-14.021C5.152,-13.994 5.042,-13.962 4.933,-13.929C4.84,-13.901 4.747,-13.872 4.655,-13.84C4.523,-13.794 4.394,-13.742 4.265,-13.687C4.198,-13.66 4.132,-13.633 4.065,-13.602C3.906,-13.529 3.75,-13.448 3.596,-13.362C3.57,-13.347 3.543,-13.336 3.517,-13.321C3.507,-13.315 3.498,-13.309 3.488,-13.303C3.314,-13.202 3.146,-13.092 2.982,-12.975C2.964,-12.962 2.945,-12.951 2.927,-12.938C2.763,-12.819 2.604,-12.691 2.45,-12.556C2.435,-12.543 2.418,-12.531 2.404,-12.518C2.261,-12.39 2.124,-12.254 1.991,-12.113C1.97,-12.091 1.947,-12.069 1.926,-12.046C1.809,-11.919 1.698,-11.783 1.59,-11.645C1.56,-11.607 1.528,-11.57 1.499,-11.531C1.403,-11.403 1.314,-11.268 1.227,-11.132C1.194,-11.081 1.159,-11.031 1.127,-10.978C1.104,-10.939 1.076,-10.903 1.053,-10.863C0.993,-10.759 0.945,-10.652 0.891,-10.546C0.868,-10.5 0.843,-10.455 0.82,-10.409C0.741,-10.245 0.671,-10.078 0.606,-9.91C0.596,-9.883 0.584,-9.855 0.575,-9.828C0.506,-9.643 0.447,-9.456 0.396,-9.269C0.392,-9.254 0.388,-9.24 0.384,-9.226C0.332,-9.03 0.289,-8.832 0.255,-8.634C0.253,-8.622 0.25,-8.61 0.249,-8.597C0.216,-8.4 0.193,-8.204 0.178,-8.006C0.177,-7.985 0.175,-7.965 0.174,-7.944C0.162,-7.756 0.157,-7.569 0.161,-7.381C0.162,-7.346 0.162,-7.311 0.164,-7.276C0.169,-7.101 0.183,-6.928 0.203,-6.754C0.208,-6.706 0.213,-6.659 0.219,-6.611C0.242,-6.446 0.271,-6.282 0.305,-6.119C0.316,-6.067 0.327,-6.015 0.339,-5.963C0.378,-5.798 0.425,-5.634 0.476,-5.472C0.49,-5.427 0.504,-5.383 0.519,-5.338C0.58,-5.16 0.648,-4.986 0.724,-4.813C0.735,-4.787 0.746,-4.76 0.758,-4.734C0.847,-4.537 0.945,-4.345 1.053,-4.157C1.055,-4.154 1.057,-4.15 1.059,-4.147C1.059,-4.145 1.06,-4.144 1.061,-4.143C1.283,-3.758 1.544,-3.393 1.844,-3.054C1.849,-3.05 1.852,-3.045 1.856,-3.04C1.895,-2.997 1.932,-2.953 1.972,-2.91C1.891,-2.381 1.791,-1.656 1.417,-1.008C1.029,-0.336 0.421,0.123 0,0.461" style="fill:rgb(0,55,100);fill-rule:nonzero;"/>
    </g>
    <g transform="matrix(22.0653,0,0,22.0654,904.525,783.459)">
        <path d="M0,-21.227C-1.854,-24.439 -5.962,-25.54 -9.174,-23.685C-12.387,-21.831 -13.487,-17.724 -11.633,-14.511C-10.12,-11.891 -7.107,-10.677 -4.305,-11.325C-3.887,-10.99 -3.307,-10.54 -2.931,-9.891C-2.542,-9.216 -2.449,-8.457 -2.366,-7.923C-4.316,-5.82 -4.764,-2.614 -3.255,0C-1.4,3.212 2.708,4.313 5.919,2.458C9.132,0.604 10.232,-3.504 8.378,-6.716C6.865,-9.336 3.854,-10.55 1.053,-9.903C0.632,-10.241 0.024,-10.7 -0.364,-11.373C-0.738,-12.02 -0.838,-12.745 -0.919,-13.274C1.055,-15.377 1.517,-18.601 0,-21.227" style="fill:rgb(255,159,21);fill-rule:nonzero;"/>
    </g>
    <g transform="matrix(22.0653,0,0,22.0654,951.962,449.599)">
        <path d="M0,23.926C-0.105,23.821 -0.274,23.819 -0.383,23.92C-10.631,33.392 -24.218,34.201 -34.185,24.234C-44.152,14.267 -45.104,-1.083 -35.655,-11.352C-35.554,-11.462 -35.556,-11.63 -35.661,-11.735C-35.773,-11.847 -35.958,-11.844 -36.065,-11.727C-45.724,-1.231 -45.471,15.163 -35.292,25.342C-25.114,35.52 -8.72,35.773 1.777,26.114C1.894,26.008 1.896,25.822 1.784,25.711L0,23.926Z" style="fill:rgb(255,159,21);fill-rule:nonzero;"/>
    </g>
    <g transform="matrix(22.0653,0,0,22.0654,1009.22,763.178)">
        <path d="M0,-26.757C-10.178,-36.935 -26.571,-37.188 -37.068,-27.531C-37.185,-27.424 -37.188,-27.239 -37.076,-27.127L-35.291,-25.342C-35.186,-25.237 -35.017,-25.236 -34.908,-25.337C-24.661,-34.807 -11.074,-35.616 -1.107,-25.65C8.86,-15.682 9.813,-0.334 0.364,9.936C0.263,10.045 0.265,10.214 0.37,10.319C0.482,10.431 0.667,10.428 0.774,10.311C10.432,-0.185 10.178,-16.579 0,-26.757" style="fill:rgb(0,55,100);fill-rule:nonzero;"/>
    </g>
</svg>
