<?xml version="1.0" encoding="UTF-8" standalone="no"?>
<!DOCTYPE svg PUBLIC "-//W3C//DTD SVG 1.1//EN" "http://www.w3.org/Graphics/SVG/1.1/DTD/svg11.dtd">
<svg width="100%" height="100%" viewBox="0 0 1015 1015" version="1.1" xmlns="http://www.w3.org/2000/svg" xmlns:xlink="http://www.w3.org/1999/xlink" xml:space="preserve" xmlns:serif="http://www.serif.com/" style="fill-rule:evenodd;clip-rule:evenodd;stroke-linejoin:round;stroke-miterlimit:2;">
    <path d="M507.54,0.847C787.481,0.847 1014.4,227.765 1014.4,507.695C1014.4,787.621 787.48,1014.54 507.54,1014.54C227.62,1014.54 0.68,787.621 0.68,507.695C0.68,227.765 227.62,0.847 507.54,0.847ZM195.468,507.699C195.468,335.341 335.192,195.617 507.541,195.617C679.908,195.617 819.613,335.341 819.613,507.699C819.613,680.05 679.908,819.77 507.541,819.77C335.191,819.77 195.468,680.05 195.468,507.699ZM512.922,201.597L512.922,502.305L813.63,502.305L813.63,513.072L811.069,513.072C808.233,676.45 676.318,808.39 512.922,811.231L512.922,813.789L502.156,813.789L502.156,513.072L201.448,513.072L201.448,502.305L204.011,502.305C206.857,338.918 338.765,207.012 502.156,204.171L502.156,201.597L512.922,201.597ZM810.516,513.072L805.155,513.072C802.289,673.211 673.063,802.436 512.923,805.28L512.923,810.666C676.033,807.822 807.67,676.181 810.516,513.072ZM209.409,502.264L209.409,502.265C212.254,341.918 341.665,212.518 502.013,209.661L502.013,204.278C338.678,207.134 206.894,338.946 204.026,502.264L209.409,502.264ZM277.548,206.41C267.318,196.459 251.479,193.457 236.632,202.667C239.456,195.303 238.302,187.807 236.798,183.671C230.383,171.989 228.156,170.534 222.875,166.101C205.779,151.768 187.816,164.006 174.988,179.332L112.849,253.348L210.502,335.274L276.001,257.215C290.954,239.376 293.283,221.703 277.548,206.41ZM870.243,223.691L826.747,287.14L895.093,253.514L913.614,275.756L806.06,329.768L784.325,303.443L826.025,240.582L825.78,240.263L756.4,269.961L734.439,243.81L806.971,147.777L825.51,170.011L780.099,231.169L850.36,199.832L870.243,223.691ZM254.183,249.501L215.287,295.853L190.889,275.383L230.096,228.662C234.529,223.393 244.387,221.856 251.049,227.446C258.596,233.766 259.339,243.345 254.183,249.501ZM151.231,242.108L188.538,197.655C192.85,192.5 202.624,192.706 208.914,197.974C215.823,203.78 215.844,211.997 211.182,217.514L174.309,261.473L151.231,242.108ZM472.171,43.95L433.892,43.95L433.892,171.237L459.363,171.237L459.363,82.362L492.898,171.237L520.74,171.237L554.272,82.362L554.272,171.237L579.743,171.237L579.743,43.95L541.464,43.95L506.818,134.651L506.983,135.083L506.653,135.083L506.818,134.651L472.171,43.95Z"/>
</svg>
